<svg width="400" height="400" viewBox="0 0 400 400" fill="none" xmlns="http://www.w3.org/2000/svg">
  <rect width="400" height="400" fill="#F3F4F6"/>
  <g opacity="0.3">
    <path d="M200 140C177.909 140 160 157.909 160 180V220C160 242.091 177.909 260 200 260C222.091 260 240 242.091 240 220V180C240 157.909 222.091 140 200 140Z" fill="#9CA3AF"/>
    <path d="M140 200C140 177.909 157.909 160 180 160H220C242.091 160 260 177.909 260 200C260 222.091 242.091 240 220 240H180C157.909 240 140 222.091 140 200Z" fill="#9CA3AF"/>
    <circle cx="200" cy="180" r="15" fill="#6B7280"/>
    <path d="M160 220L180 200L200 220L220 200L240 220V240C240 251.046 231.046 260 220 260H180C168.954 260 160 251.046 160 240V220Z" fill="#6B7280"/>
  </g>
  <text x="200" y="290" font-family="system-ui, sans-serif" font-size="14" fill="#9CA3AF" text-anchor="middle" font-weight="500">No Image</text>
</svg>
